HIERARCHY
ROOT hip
{
	OFFSET 0.000000 0.000000 0.000000
	CHANNELS 6 Xposition Yposition Zposition Zrotation Yrotation Xrotation 
	JOINT lhipjoint
	{
		OFFSET 0.000000 0.000000 0.000000
		CHANNELS 3 Zrotation Yrotation Xrotation
		JOINT lfemur
		{
			OFFSET 1.363060 -1.794630 0.839290
			CHANNELS 3 Zrotation Yrotation Xrotation
			JOINT ltibia
			{
				OFFSET 2.448110 -6.726130 0.000000
				CHANNELS 3 Zrotation Yrotation Xrotation
				JOINT lfoot
				{
					OFFSET 2.562200 -7.039590 0.000000
					CHANNELS 3 Zrotation Yrotation Xrotation
					JOINT ltoes
					{
						OFFSET 0.157640 -0.433110 2.322550
						CHANNELS 3 Zrotation Yrotation Xrotation
						End Site
						{
							OFFSET 0.000000 0.000000 0.000000
						}
					}
				}
			}
		}
	}
	JOINT rhipjoint
	{
		OFFSET 0.000000 0.000000 0.000000
		CHANNELS 3 Zrotation Yrotation Xrotation
		JOINT rfemur
		{
			OFFSET -1.305520 -1.794630 0.839290
			CHANNELS 3 Zrotation Yrotation Xrotation
			JOINT rtibia
			{
				OFFSET -2.542530 -6.985550 0.000000
				CHANNELS 3 Zrotation Yrotation Xrotation
				JOINT rfoot
				{
					OFFSET -2.568260 -7.056230 0.000000
					CHANNELS 3 Zrotation Yrotation Xrotation
					JOINT rtoes
					{
						OFFSET -0.164730 -0.452590 2.363150
						CHANNELS 3 Zrotation Yrotation Xrotation
						End Site
						{
							OFFSET 0.000000 0.000000 0.000000
						}
					}
				}
			}
		}
	}
	JOINT lowerback
	{
		OFFSET 0.000000 0.000000 0.000000
		CHANNELS 3 Zrotation Yrotation Xrotation
		JOINT upperback
		{
			OFFSET 0.028270 2.035590 -0.193380
			CHANNELS 3 Zrotation Yrotation Xrotation
			JOINT thorax
			{
				OFFSET 0.056720 2.048850 -0.042750
				CHANNELS 3 Zrotation Yrotation Xrotation
				JOINT lowerneck
				{
					OFFSET 0.000000 0.000000 0.000000
					CHANNELS 3 Zrotation Yrotation Xrotation
					JOINT upperneck
					{
						OFFSET -0.054170 1.746240 0.172020
						CHANNELS 3 Zrotation Yrotation Xrotation
						JOINT head
						{
							OFFSET 0.104070 1.761360 -0.123970
							CHANNELS 3 Zrotation Yrotation Xrotation
							End Site
							{
								OFFSET 0.000000 0.000000 0.000000
							}
						}
					}
				}
				JOINT lclavicle
				{
					OFFSET 0.000000 0.000000 0.000000
					CHANNELS 3 Zrotation Yrotation Xrotation
					JOINT lhumerus
					{
						OFFSET 3.362410 1.200890 -0.311210
						CHANNELS 3 Zrotation Yrotation Xrotation
						JOINT lradius
						{
							OFFSET 4.983000 -0.000000 -0.000000
							CHANNELS 3 Zrotation Yrotation Xrotation
							JOINT lwrist
							{
								OFFSET 3.483560 -0.000000 -0.000000
								CHANNELS 3 Zrotation Yrotation Xrotation
								JOINT lhand
								{
									OFFSET 0.000000 0.000000 0.000000
									CHANNELS 3 Zrotation Yrotation Xrotation
									JOINT lfingers
									{
										OFFSET 0.715260 -0.000000 -0.000000
										CHANNELS 3 Zrotation Yrotation Xrotation
										End Site
										{
											OFFSET 0.000000 0.000000 0.000000
										}
									}
								}
								JOINT lthumb
								{
									OFFSET 0.000000 0.000000 0.000000
									CHANNELS 3 Zrotation Yrotation Xrotation
									End Site
									{
										OFFSET 0.000000 0.000000 0.000000
									}
								}
							}
						}
					}
				}
				JOINT rclavicle
				{
					OFFSET 0.000000 0.000000 0.000000
					CHANNELS 3 Zrotation Yrotation Xrotation
					JOINT rhumerus
					{
						OFFSET -3.136600 1.374050 -0.404650
						CHANNELS 3 Zrotation Yrotation Xrotation
						JOINT rradius
						{
							OFFSET -5.241900 -0.000000 -0.000000
							CHANNELS 3 Zrotation Yrotation Xrotation
							JOINT rwrist
							{
								OFFSET -3.444170 -0.000000 -0.000000
								CHANNELS 3 Zrotation Yrotation Xrotation
								JOINT rhand
								{
									OFFSET 0.000000 0.000000 0.000000
									CHANNELS 3 Zrotation Yrotation Xrotation
									JOINT rfingers
									{
										OFFSET -0.622530 -0.000000 -0.000000
										CHANNELS 3 Zrotation Yrotation Xrotation
										End Site
										{
											OFFSET 0.000000 0.000000 0.000000
										}
									}
								}
								JOINT rthumb
								{
									OFFSET 0.000000 0.000000 0.000000
									CHANNELS 3 Zrotation Yrotation Xrotation
									End Site
									{
										OFFSET 0.000000 0.000000 0.000000
									}
								}
							}
						}
					}
				}
			}
		}
	}
}
MOTION
Frames: 11
Frame Time: 0.008333
-2.997125 17.652719 -8.740059 -175.913965 11.701574 171.509165 -2.493823 2.421687 1.621103 -7.936863 3.711525 -18.613149 8.451964 15.931986 54.020337 -0.573426 4.462152 -1.273844 1.391800 -7.464000 -21.097500 0.021109 -3.891213 1.231918 25.037490 -7.982532 -9.190097 -4.598591 -10.667077 37.553139 0.026997 -4.879731 -15.900160 -0.749800 5.530900 -15.429100 2.822386 -2.664736 12.604087 1.907446 -2.052376 -2.600478 4.029593 -0.087608 5.015029 0.629540 -5.194939 -3.846508 -4.872734 -3.820194 -4.893415 0.283000 -0.622100 -4.119000 1.333345 3.647093 1.206938 -81.804897 5.612577 46.477224 50.341270 -62.587946 -23.776891 0.362825 -0.570341 149.141258 32.226529 10.407535 5.998600 -7.125000 0.000000 0.000000 4.708300 41.226800 -0.439300 0.925054 1.309630 4.120448 79.223158 -13.210104 14.777426 -61.277633 59.477967 -26.514238 2.701615 -0.773697 -159.323704 -18.398239 3.737104 -1.127000 7.125000 0.000000 0.000000 8.326300 -25.773100 3.916800 
-2.973654 17.659893 -8.680203 -175.844709 10.773293 171.717537 -2.505387 2.463477 1.674076 -8.210456 4.183614 -17.590423 8.611114 16.009234 54.529476 -0.697230 5.078233 -1.732239 1.479600 -7.685600 -21.763300 0.044808 -3.901282 1.216062 25.209165 -8.302075 -9.750679 -4.622542 -10.714060 37.677179 0.051668 -5.098344 -16.176597 -0.739600 5.493800 -15.322500 2.760323 -2.686082 11.955137 1.922470 -2.144992 -2.616729 4.115507 -0.152587 5.208686 0.552047 -5.469922 -3.755771 -4.842600 -4.194823 -4.754479 0.330500 -0.806800 -4.109100 1.306017 3.680999 1.198396 -81.566507 5.574852 46.932415 50.675763 -62.727676 -23.981054 0.372097 -0.576854 149.083412 32.004967 10.327009 5.892800 -7.125000 0.000000 0.000000 4.514300 41.097800 -0.435500 0.984448 1.279957 4.098378 79.066186 -13.471618 15.186125 -63.279523 59.936390 -27.848558 2.672609 -0.694432 -159.091756 -18.296531 3.482422 -1.073400 7.125000 0.000000 0.000000 8.370800 -25.959800 3.901200 
-2.950080 17.667580 -8.620757 -175.705867 9.857592 171.981746 -2.510803 2.504670 1.726236 -8.381028 4.657930 -16.521840 8.701621 16.043497 54.798217 -0.827178 5.720587 -2.275599 1.591300 -7.957000 -22.583700 0.065927 -3.908436 1.198266 25.504286 -8.520419 -10.297689 -4.632680 -10.741065 37.736424 0.109267 -5.439421 -16.425907 -0.714100 5.400400 -15.054300 2.771423 -2.707986 11.235198 1.938218 -2.235377 -2.626049 4.156646 -0.210964 5.456916 0.490114 -5.770669 -3.676632 -4.784981 -4.589718 -4.653809 0.392600 -0.994700 -4.119900 1.276514 3.732306 1.190644 -81.258435 5.449514 47.395790 51.030443 -62.871327 -24.205603 0.384759 -0.584207 148.977947 31.817954 10.290047 5.820800 -7.125000 0.000000 0.000000 4.353100 41.019900 -0.428200 1.038632 1.246977 4.076688 78.957312 -13.648594 15.587224 -65.352780 60.351719 -29.242113 2.651869 -0.618929 -158.788102 -18.193631 3.264187 -1.030300 7.125000 0.000000 0.000000 8.420100 -26.105800 3.895600 
-2.928966 17.672295 -8.561925 -175.534470 8.907097 172.282662 -2.512417 2.547298 1.780899 -8.501918 5.152174 -15.402530 8.725890 16.034238 54.839929 -0.940452 6.278909 -2.805427 1.663300 -8.126300 -23.098400 0.086404 -3.918467 1.181398 25.822133 -8.768772 -10.889313 -4.631506 -10.757030 37.747704 0.163563 -5.745306 -16.624615 -0.694600 5.327800 -14.845900 2.831628 -2.748267 10.487094 1.956476 -2.352690 -2.642587 4.177852 -0.279538 5.704986 0.414288 -6.038956 -3.661213 -4.729522 -4.955058 -4.489695 0.458900 -1.175000 -4.075900 1.246815 3.776974 1.181675 -80.982912 5.300975 47.788356 51.426949 -63.026278 -24.463932 0.396138 -0.595586 148.901319 31.695357 10.211855 5.735900 -7.125000 0.000000 0.000000 4.247800 40.896100 -0.430800 1.087975 1.208590 4.045867 78.827153 -13.798007 16.029542 -67.467387 60.704737 -30.661341 2.623518 -0.544338 -158.431513 -18.014205 2.981420 -0.964400 7.125000 0.000000 0.000000 8.525600 -26.322200 3.901800 
-2.907853 17.680802 -8.503504 -175.381112 7.947010 172.592860 -2.510882 2.591496 1.833628 -8.603978 5.692762 -14.276792 8.694684 15.988496 54.691853 -1.027695 6.706485 -3.161018 1.686500 -8.180000 -23.262100 0.106244 -3.928791 1.164052 26.125774 -9.025373 -11.493794 -4.620490 -10.763853 37.717748 0.215948 -6.019396 -16.768029 -0.667500 5.224700 -14.550700 2.859119 -2.787397 9.723683 1.975408 -2.472567 -2.658035 4.215895 -0.351880 5.967902 0.327755 -6.329414 -3.654014 -4.670509 -5.349077 -4.325777 0.530200 -1.368000 -4.029700 1.215092 3.823675 1.172784 -80.675563 5.133513 48.163555 51.868810 -63.199181 -24.756406 0.413728 -0.608288 148.821986 31.614948 10.236332 5.719900 -7.125000 0.000000 0.000000 4.183000 40.889200 -0.424900 1.138695 1.168019 4.010642 78.669405 -13.932928 16.519221 -69.688921 60.996707 -32.165647 2.597635 -0.475393 -158.015640 -17.781795 2.737006 -0.905800 7.125000 0.000000 0.000000 8.672000 -26.501700 3.933400 
-2.887354 17.690744 -8.443852 -175.229080 6.956797 172.912481 -2.505987 2.634945 1.882764 -8.660641 6.223022 -13.183786 8.614209 15.910901 54.370828 -1.103095 7.068713 -3.321224 1.691800 -8.192200 -23.299500 0.125087 -3.939151 1.146299 26.431106 -9.317942 -12.135591 -4.603131 -10.764525 37.660009 0.284529 -6.339211 -16.866807 -0.648800 5.152500 -14.344000 2.864497 -2.843458 8.972078 1.998346 -2.614057 -2.673532 4.276556 -0.436430 6.239644 0.240405 -6.597143 -3.684255 -4.618384 -5.712900 -4.167511 0.595200 -1.546100 -3.973900 1.187827 3.869311 1.167549 -80.423325 4.909258 48.454408 52.241011 -63.349919 -25.006935 0.431856 -0.621096 148.724935 31.658241 10.309496 5.759800 -7.125000 0.000000 0.000000 4.228200 40.949100 -0.423300 1.188363 1.125268 3.969217 78.507542 -14.042871 17.037706 -71.988054 61.215369 -33.730066 2.566159 -0.409096 -157.572573 -17.485733 2.458086 -0.834200 7.125000 0.000000 0.000000 8.865800 -26.721900 3.976900 
-2.866958 17.700891 -8.384098 -175.062623 5.979103 173.231961 -2.496318 2.679576 1.930824 -8.653746 6.809302 -12.099775 8.494524 15.807016 53.908836 -1.169466 7.382070 -3.342587 1.703600 -8.219400 -23.382500 0.142464 -3.950732 1.131678 26.762287 -9.567406 -12.750939 -4.579882 -10.757197 37.574954 0.352771 -6.655932 -16.965531 -0.626400 5.064700 -14.093100 2.882367 -2.892522 8.245930 2.019059 -2.748303 -2.695379 4.316655 -0.515698 6.477548 0.162776 -6.864578 -3.724725 -4.553956 -6.083437 -3.979016 0.665000 -1.732300 -3.895300 1.157160 3.905511 1.159580 -80.134888 4.663215 48.692623 52.776510 -63.546853 -25.379421 0.446336 -0.647032 148.587468 31.801192 10.144518 5.668600 -7.125000 0.000000 0.000000 4.356600 40.728100 -0.459900 1.234670 1.085283 3.921927 78.365445 -14.148628 17.589071 -74.326128 61.349356 -35.333646 2.537797 -0.353378 -157.099108 -17.131736 2.218918 -0.769400 7.125000 0.000000 0.000000 9.106700 -26.909800 4.046800 
-2.846766 17.709193 -8.322602 -174.873154 4.976528 173.538665 -2.482813 2.726182 1.978589 -8.573803 7.403694 -10.964278 8.335252 15.675771 53.308408 -1.210697 7.577868 -3.362109 1.667700 -8.136600 -23.129600 0.158063 -3.961899 1.116826 27.123428 -9.796207 -13.372619 -4.558591 -10.751984 37.497976 0.436108 -7.015812 -17.024688 -0.604000 4.974700 -13.836500 2.907095 -2.953411 7.558864 2.042783 -2.892832 -2.716215 4.350732 -0.599001 6.698588 0.141788 -7.136409 -3.742850 -4.514653 -6.454290 -3.825326 0.707700 -1.918500 -3.840800 1.123949 3.940804 1.150871 -79.764192 4.391110 48.947169 53.503122 -63.799289 -25.881704 0.468381 -0.678842 148.317283 31.909329 9.918225 5.524800 -7.125000 0.000000 0.000000 4.454900 40.419200 -0.504300 1.288074 1.052015 3.871273 78.213050 -14.268269 18.215068 -76.844045 61.391762 -37.095227 2.518554 -0.306666 -156.676220 -16.745695 2.097737 -0.732800 7.125000 0.000000 0.000000 9.373400 -26.983600 4.151800 
-2.827907 17.713190 -8.261926 -174.669990 3.992317 173.864682 -2.468384 2.773643 2.026031 -8.441283 8.017698 -9.816697 8.139450 15.516096 52.576247 -1.230618 7.673697 -3.390070 1.588800 -7.951200 -22.566100 0.170529 -3.971578 1.103263 27.509987 -9.990383 -14.051726 -4.544905 -10.758107 37.457221 0.539375 -7.437712 -17.044209 -0.591200 4.922700 -13.688300 2.934716 -3.011761 6.857254 2.073524 -3.036001 -2.742577 4.422592 -0.683318 6.897551 0.073065 -7.401750 -3.713934 -4.460690 -6.816909 -3.677909 0.769400 -2.098300 -3.798000 1.089398 3.972449 1.143388 -79.389554 4.114730 49.210504 54.348571 -64.087870 -26.455655 0.502559 -0.709749 147.936155 31.962717 9.797388 5.430100 -7.125000 0.000000 0.000000 4.510900 40.219500 -0.532900 1.344004 1.022032 3.816537 78.034496 -14.405062 18.871877 -79.399199 61.327636 -38.926294 2.499834 -0.271456 -156.259787 -16.325659 2.015485 -0.702000 7.125000 0.000000 0.000000 9.667200 -27.029100 4.274900 
-2.810688 17.711140 -8.201147 -174.462602 2.974565 174.151991 -2.451886 2.821641 2.072214 -8.268109 8.597473 -8.607013 7.903497 15.322370 51.696403 -1.227734 7.663024 -3.452455 1.538200 -7.829500 -22.197500 0.181044 -3.979745 1.089719 27.894549 -10.153884 -14.748830 -4.544519 -10.781037 37.475543 0.668082 -7.963424 -17.072491 -0.592300 4.927200 -13.700900 2.957341 -3.099325 6.198044 2.108739 -3.211914 -2.768032 4.511856 -0.783092 7.089819 -0.029964 -7.666204 -3.690278 -4.416222 -7.177771 -3.538381 0.834000 -2.274500 -3.753500 1.053629 4.002707 1.139318 -79.047095 3.787523 49.396593 55.309174 -64.397657 -27.104283 0.541376 -0.742448 147.524535 31.943633 9.653853 5.303700 -7.125000 0.000000 0.000000 4.504100 39.981600 -0.558500 1.401108 0.993846 3.755716 77.833127 -14.531482 19.590416 -82.072596 61.149073 -40.913810 2.491527 -0.240381 -155.849365 -15.976174 2.008860 -0.693400 7.125000 0.000000 0.000000 9.909600 -26.996100 4.392900 
-2.795007 17.705093 -8.139343 -174.257993 1.959894 174.427518 -2.432109 2.868242 2.116212 -8.081305 9.148965 -7.367651 7.624172 15.088643 50.661367 -1.165679 7.381411 -3.642313 1.594300 -7.964300 -22.605700 0.192798 -3.987536 1.076899 28.262143 -10.320664 -15.493876 -4.557302 -10.824687 37.557818 0.792156 -8.436558 -17.022547 -0.590500 4.919700 -13.679600 2.994267 -3.180070 5.566578 2.137914 -3.380533 -2.795132 4.559461 -0.874771 7.252455 -0.102912 -7.926940 -3.628804 -4.344998 -7.529417 -3.417273 0.907900 -2.445600 -3.726100 1.012961 4.028411 1.135749 -78.666037 3.392522 49.554884 56.456497 -64.737451 -27.881440 0.579634 -0.784756 147.130207 31.855555 9.343713 5.055600 -7.125000 0.000000 0.000000 4.431800 39.533600 -0.598400 1.455581 0.976221 3.691511 77.700655 -14.709701 20.321460 -84.893085 60.844235 -43.093871 2.491871 -0.214416 -155.387985 -15.699421 2.026948 -0.694100 7.125000 0.000000 0.000000 10.101100 -26.936300 4.494800 
